<svg xmlns="http://www.w3.org/2000/svg" xmlns:xlink="http://www.w3.org/1999/xlink" width="142" zoomAndPan="magnify" viewBox="0 0 106.5 30.000001" height="40" preserveAspectRatio="xMidYMid meet" version="1.0"><defs><g/><clipPath id="id1"><path d="M 93.863281 15.957031 L 104.539062 15.957031 L 104.539062 27.261719 L 93.863281 27.261719 Z M 93.863281 15.957031 " clip-rule="nonzero"/></clipPath></defs><g clip-path="url(#id1)"><path fill="#7f56d9" d="M 99.515625 15.957031 C 96.394531 15.957031 93.863281 18.488281 93.863281 21.609375 C 93.863281 24.730469 96.394531 27.261719 99.515625 27.261719 C 102.636719 27.261719 105.167969 24.730469 105.167969 21.609375 C 105.167969 18.488281 102.636719 15.957031 99.515625 15.957031 " fill-opacity="1" fill-rule="nonzero"/></g><g fill="#101828" fill-opacity="1"><g transform="translate(1.482346, 21.701671)"><g><path d="M 5.34375 -11.625 L 5.34375 -9.1875 L 10.109375 -9.1875 L 10.109375 -6.015625 L 5.34375 -6.015625 L 5.34375 -3.328125 L 10.75 -3.328125 L 10.75 0 L 1.1875 0 L 1.1875 -14.953125 L 10.75 -14.953125 L 10.75 -11.625 Z M 5.34375 -11.625 "/></g></g></g><g fill="#000000" fill-opacity="1"><g transform="translate(13.100436, 21.701671)"><g><path d="M 6.25 0.140625 C 5.175781 0.140625 4.21875 -0.0351562 3.375 -0.390625 C 2.539062 -0.753906 1.878906 -1.25 1.390625 -1.875 C 0.898438 -2.5 0.628906 -3.207031 0.578125 -4 L 4.59375 -4 C 4.65625 -3.625 4.832031 -3.328125 5.125 -3.109375 C 5.425781 -2.898438 5.796875 -2.796875 6.234375 -2.796875 C 6.578125 -2.796875 6.847656 -2.863281 7.046875 -3 C 7.242188 -3.144531 7.34375 -3.332031 7.34375 -3.5625 C 7.34375 -3.851562 7.175781 -4.070312 6.84375 -4.21875 C 6.519531 -4.363281 5.984375 -4.519531 5.234375 -4.6875 C 4.390625 -4.851562 3.679688 -5.039062 3.109375 -5.25 C 2.546875 -5.46875 2.054688 -5.816406 1.640625 -6.296875 C 1.222656 -6.773438 1.015625 -7.425781 1.015625 -8.25 C 1.015625 -8.957031 1.203125 -9.597656 1.578125 -10.171875 C 1.960938 -10.742188 2.523438 -11.195312 3.265625 -11.53125 C 4.015625 -11.875 4.910156 -12.046875 5.953125 -12.046875 C 7.515625 -12.046875 8.738281 -11.660156 9.625 -10.890625 C 10.519531 -10.128906 11.035156 -9.128906 11.171875 -7.890625 L 7.421875 -7.890625 C 7.347656 -8.265625 7.179688 -8.554688 6.921875 -8.765625 C 6.660156 -8.972656 6.3125 -9.078125 5.875 -9.078125 C 5.53125 -9.078125 5.269531 -9.007812 5.09375 -8.875 C 4.914062 -8.75 4.828125 -8.578125 4.828125 -8.359375 C 4.828125 -8.078125 4.988281 -7.859375 5.3125 -7.703125 C 5.644531 -7.554688 6.171875 -7.40625 6.890625 -7.25 C 7.753906 -7.0625 8.472656 -6.851562 9.046875 -6.625 C 9.617188 -6.40625 10.117188 -6.046875 10.546875 -5.546875 C 10.972656 -5.046875 11.1875 -4.363281 11.1875 -3.5 C 11.1875 -2.800781 10.984375 -2.175781 10.578125 -1.625 C 10.179688 -1.082031 9.613281 -0.648438 8.875 -0.328125 C 8.132812 -0.015625 7.257812 0.140625 6.25 0.140625 Z M 6.25 0.140625 "/></g></g></g><g fill="#000000" fill-opacity="1"><g transform="translate(25.14674, 21.701671)"><g><path d="M 8.203125 -3.546875 L 8.203125 0 L 6.40625 0 C 3.363281 0 1.84375 -1.503906 1.84375 -4.515625 L 1.84375 -8.4375 L 0.375 -8.4375 L 0.375 -11.890625 L 1.84375 -11.890625 L 1.84375 -14.78125 L 6.015625 -14.78125 L 6.015625 -11.890625 L 8.1875 -11.890625 L 8.1875 -8.4375 L 6.015625 -8.4375 L 6.015625 -4.453125 C 6.015625 -4.128906 6.085938 -3.894531 6.234375 -3.75 C 6.390625 -3.613281 6.644531 -3.546875 7 -3.546875 Z M 8.203125 -3.546875 "/></g></g></g><g fill="#000000" fill-opacity="1"><g transform="translate(34.075423, 21.701671)"><g><path d="M 0.515625 -5.953125 C 0.515625 -7.179688 0.734375 -8.253906 1.171875 -9.171875 C 1.617188 -10.097656 2.226562 -10.804688 3 -11.296875 C 3.769531 -11.796875 4.628906 -12.046875 5.578125 -12.046875 C 6.398438 -12.046875 7.109375 -11.878906 7.703125 -11.546875 C 8.296875 -11.222656 8.753906 -10.785156 9.078125 -10.234375 L 9.078125 -11.890625 L 13.234375 -11.890625 L 13.234375 0 L 9.078125 0 L 9.078125 -1.65625 C 8.753906 -1.101562 8.289062 -0.664062 7.6875 -0.34375 C 7.082031 -0.0195312 6.378906 0.140625 5.578125 0.140625 C 4.628906 0.140625 3.769531 -0.101562 3 -0.59375 C 2.226562 -1.082031 1.617188 -1.789062 1.171875 -2.71875 C 0.734375 -3.644531 0.515625 -4.722656 0.515625 -5.953125 Z M 9.078125 -5.953125 C 9.078125 -6.722656 8.867188 -7.328125 8.453125 -7.765625 C 8.035156 -8.203125 7.519531 -8.421875 6.90625 -8.421875 C 6.289062 -8.421875 5.773438 -8.203125 5.359375 -7.765625 C 4.953125 -7.335938 4.75 -6.734375 4.75 -5.953125 C 4.75 -5.191406 4.953125 -4.585938 5.359375 -4.140625 C 5.773438 -3.703125 6.289062 -3.484375 6.90625 -3.484375 C 7.519531 -3.484375 8.035156 -3.703125 8.453125 -4.140625 C 8.867188 -4.578125 9.078125 -5.179688 9.078125 -5.953125 Z M 9.078125 -5.953125 "/></g></g></g><g fill="#000000" fill-opacity="1"><g transform="translate(48.497054, 21.701671)"><g><path d="M 8.203125 -3.546875 L 8.203125 0 L 6.40625 0 C 3.363281 0 1.84375 -1.503906 1.84375 -4.515625 L 1.84375 -8.4375 L 0.375 -8.4375 L 0.375 -11.890625 L 1.84375 -11.890625 L 1.84375 -14.78125 L 6.015625 -14.78125 L 6.015625 -11.890625 L 8.1875 -11.890625 L 8.1875 -8.4375 L 6.015625 -8.4375 L 6.015625 -4.453125 C 6.015625 -4.128906 6.085938 -3.894531 6.234375 -3.75 C 6.390625 -3.613281 6.644531 -3.546875 7 -3.546875 Z M 8.203125 -3.546875 "/></g></g></g><g fill="#000000" fill-opacity="1"><g transform="translate(57.425737, 21.701671)"><g><path d="M 12.546875 -6.078125 C 12.546875 -5.753906 12.523438 -5.429688 12.484375 -5.109375 L 4.625 -5.109375 C 4.664062 -4.460938 4.84375 -3.976562 5.15625 -3.65625 C 5.476562 -3.34375 5.882812 -3.1875 6.375 -3.1875 C 7.070312 -3.1875 7.566406 -3.492188 7.859375 -4.109375 L 12.296875 -4.109375 C 12.109375 -3.296875 11.75 -2.566406 11.21875 -1.921875 C 10.695312 -1.273438 10.03125 -0.769531 9.21875 -0.40625 C 8.414062 -0.0390625 7.523438 0.140625 6.546875 0.140625 C 5.378906 0.140625 4.335938 -0.101562 3.421875 -0.59375 C 2.515625 -1.082031 1.800781 -1.785156 1.28125 -2.703125 C 0.769531 -3.628906 0.515625 -4.710938 0.515625 -5.953125 C 0.515625 -7.203125 0.765625 -8.28125 1.265625 -9.1875 C 1.773438 -10.101562 2.484375 -10.804688 3.390625 -11.296875 C 4.304688 -11.796875 5.359375 -12.046875 6.546875 -12.046875 C 7.722656 -12.046875 8.765625 -11.800781 9.671875 -11.3125 C 10.578125 -10.832031 11.28125 -10.144531 11.78125 -9.25 C 12.289062 -8.351562 12.546875 -7.296875 12.546875 -6.078125 Z M 8.3125 -7.125 C 8.3125 -7.632812 8.140625 -8.03125 7.796875 -8.3125 C 7.460938 -8.601562 7.039062 -8.75 6.53125 -8.75 C 6.019531 -8.75 5.601562 -8.613281 5.28125 -8.34375 C 4.957031 -8.070312 4.742188 -7.664062 4.640625 -7.125 Z M 8.3125 -7.125 "/></g></g></g><g fill="#000000" fill-opacity="1"><g transform="translate(70.490038, 21.701671)"><g><path d="M 5.34375 -9.796875 C 5.8125 -10.472656 6.375 -11.007812 7.03125 -11.40625 C 7.695312 -11.800781 8.414062 -12 9.1875 -12 L 9.1875 -7.5625 L 8.015625 -7.5625 C 7.109375 -7.5625 6.4375 -7.382812 6 -7.03125 C 5.5625 -6.6875 5.34375 -6.070312 5.34375 -5.1875 L 5.34375 0 L 1.1875 0 L 1.1875 -11.890625 L 5.34375 -11.890625 Z M 5.34375 -9.796875 "/></g></g></g><g fill="#000000" fill-opacity="1"><g transform="translate(79.970136, 21.701671)"><g><path d="M 14 -11.890625 L 6.453125 5.65625 L 1.921875 5.65625 L 4.765625 -0.515625 L -0.109375 -11.890625 L 4.515625 -11.890625 L 7.015625 -5.15625 L 9.4375 -11.890625 Z M 14 -11.890625 "/></g></g></g></svg>